<svg xmlns="http://www.w3.org/2000/svg" version="1.1" xmlns:xlink="http://www.w3.org/1999/xlink" xmlns:svgjs="http://svgjs.com/svgjs" width="1440" height="560" preserveAspectRatio="none" viewBox="0 0 1440 560">
    <g mask="url(&quot;#SvgjsMask1004&quot;)" fill="none">
        <path d="M0 19.74C38.65 0 74.6 74.07 140 68.51C190.6 64.2 182.65 24.15 232 0C252.65 -10.11 256 0 280 0C350 0 350 0 420 0C490 0 490 0 560 0C630 0 630 0 700 0C770 0 770 0 840 0C910 0 910 0 980 0C1050 0 1050 0 1120 0C1190 0 1190 0 1260 0C1330 0 1330 0 1400 0C1470 0 1505 -35 1540 0C1575 35 1540 70 1540 140C1540 210 1540 210 1540 280C1540 350 1540 350 1540 420C1540 490 1575 525 1540 560C1505 595 1470 560 1400 560C1330 560 1330 560 1260 560C1190 560 1190 560 1120 560C1050 560 1050 560 980 560C910 560 910 560 840 560C805 560 798.99 574.5 770 560C728.99 539.5 722.58 490 700 490C683.95 490 716.99 547.87 692.73 560C646.99 582.87 626.37 560 560 560C490 560 490 560 420 560C350 560 350 560 280 560C210 560 210 560 140 560C121.34 560 102.67 567.55 102.67 560C102.67 549.49 118.31 537.86 140 523.87C206.97 480.67 211.46 486.92 280 445.61C297.62 434.99 308.33 438.84 312.31 420C325.83 356.03 326.37 345.94 315 280C310.22 252.28 298.86 232.68 280 232.68C259.25 232.68 258.33 256.76 235.79 280C188.33 328.95 191.91 333.64 140 377.07C108.24 403.64 100.65 394.02 68.44 420C30.65 450.48 19.95 490 0 490C-14.27 490 0 455 0 420C0 370.33 -7.08 368.63 0 320.65C3.25 298.63 20.66 298.1 20.66 280C20.66 269.48 1.83 275.79 0 263.42C-8.5 205.79 0 201.71 0 140C0 79.87 -31.35 35.75 0 19.74" stroke="rgba(235, 235, 235, 0.58)" stroke-width="2"></path>
        <path d="M420 90.17C394.19 90.17 376.76 117.53 376.76 140C376.76 158.25 396.15 171.61 420 171.61C461 171.61 506.47 159.54 506.47 140C506.47 118.82 459.04 90.17 420 90.17" stroke="rgba(235, 235, 235, 0.58)" stroke-width="2"></path>
        <path d="M980 93.33C952.28 93.33 929.81 112.79 929.81 140C929.81 180.46 949.95 228.67 980 228.67C1015.35 228.67 1060.61 178.07 1060.61 140C1060.61 110.4 1017.68 93.33 980 93.33" stroke="rgba(235, 235, 235, 0.58)" stroke-width="2"></path>
        <path d="M840 229.81C814.13 229.81 797.1 255.1 797.1 280C797.1 304.38 814.33 328.36 840 328.36C880.11 328.36 928.67 304.53 928.67 280C928.67 255.25 879.92 229.81 840 229.81" stroke="rgba(235, 235, 235, 0.58)" stroke-width="2"></path>
        <path d="M1120 248.89C1105 248.89 1082.67 267.69 1082.67 280C1082.67 290.07 1102.84 293.66 1120 293.66C1128.34 293.66 1133.66 288.11 1133.66 280C1133.66 265.73 1130.49 248.89 1120 248.89" stroke="rgba(235, 235, 235, 0.58)" stroke-width="2"></path>
        <path d="M980 350C963.76 350 947.23 389.12 947.23 420C947.23 436.34 963.68 444.44 980 444.44C996.1 444.44 1012.08 436.23 1012.08 420C1012.08 389.01 996.18 350 980 350" stroke="rgba(235, 235, 235, 0.58)" stroke-width="2"></path>
        <path d="M0 64.62C46.11 64.62 69.32 101.29 136.74 140C139.32 141.48 138.94 142.21 140 145C165.44 212.21 189.74 217.88 189.74 280C189.74 310.58 166.25 330.4 140 330.4C110.39 330.4 109.1 305.09 78.03 280C39.1 248.57 22 256.85 0 217.37C-17.01 186.85 0 178.69 0 140C0 102.31 -22.26 64.62 0 64.62" stroke="rgba(235, 235, 235, 0.58)" stroke-width="2"></path>
        <path d="M146.09 140C146.09 105.03 224.61 52 280 52C314.21 52 325.29 99.79 325.29 140C325.29 165.48 307.62 183.38 280 183.38C218.02 183.38 146.09 170.72 146.09 140" stroke="rgba(235, 235, 235, 0.58)" stroke-width="2"></path>
        <path d="M420 30.85C384.2 30.85 350 8.05 350 0C350 -7.37 385 0 420 0C467.89 0 515.79 -7.52 515.79 0C515.79 7.9 467.1 30.85 420 30.85" stroke="rgba(235, 235, 235, 0.58)" stroke-width="2"></path>
        <path d="M592.94 140C598.94 75.25 547.38 37.23 575.85 0C600.91 -32.77 637.92 0 700 0C757.72 0 773.59 -22.02 815.44 0C843.59 14.82 827.33 36.98 840 73.68C851.49 106.98 863.77 109.51 863.77 140C863.77 154.55 851.09 151.15 840 163.77C789.53 221.15 787.34 219.69 740.65 280C717.34 310.11 721.91 313.41 700 344.62C672.76 383.41 653 376.51 642.35 420C626.63 484.2 672.64 516.87 647.27 560C631.47 586.87 603.63 560 560 560C490 560 490 560 420 560C350 560 350 560 280 560C230.17 560 180.34 576.06 180.34 560C180.34 540.21 230.98 525.22 280 488.29C323.89 455.22 350.48 465.67 366.15 420C386.21 361.52 335.62 341.99 351.46 280C362.54 236.62 377.84 231.27 420 209.25C482.11 176.82 494.11 197.5 560 171.11C580.58 162.87 591.01 160.8 592.94 140" stroke="rgba(235, 235, 235, 0.58)" stroke-width="2"></path>
        <path d="M980 31.93C939.29 31.93 900.87 8.28 900.87 0C900.87 -7.68 940.43 0 980 0C1045 0 1110 -7.87 1110 0C1110 8.1 1043.86 31.93 980 31.93" stroke="rgba(235, 235, 235, 0.58)" stroke-width="2"></path>
        <path d="M1151.43 140C1138.99 73.46 1134.02 42.1 1166.67 0C1188.31 -27.9 1213.34 0 1260 0C1330 0 1330 0 1400 0C1470 0 1505 -35 1540 0C1575 35 1540 70 1540 140C1540 188.69 1568.71 216.6 1540 237.39C1498.71 267.29 1467.31 228.34 1400 241.38C1357.31 249.65 1320 255.88 1320 280C1320 308.13 1353.9 338.8 1400 345.88C1463.9 355.69 1499.76 292.48 1540 313.79C1569.76 329.54 1540 366.89 1540 420C1540 490 1575 525 1540 560C1505 595 1470 560 1400 560C1330 560 1330 560 1260 560C1190 560 1190 560 1120 560C1050 560 1050 560 980 560C940.63 560 901.25 573.29 901.25 560C901.25 543.29 940.63 530 980 500C1032.5 460 1035.29 462.95 1085 420C1105.29 402.46 1101.38 398.47 1120 379.02C1168.39 328.47 1211.57 336.64 1219.02 280C1227.29 217.13 1165.16 213.46 1151.43 140" stroke="rgba(235, 235, 235, 0.58)" stroke-width="2"></path>
        <path d="M791.88 420C791.88 402.87 817.2 392 840 392C857.65 392 872.77 403.81 872.77 420C872.77 441.87 858.65 468.13 840 468.13C818.2 468.13 791.88 440.94 791.88 420" stroke="rgba(235, 235, 235, 0.58)" stroke-width="2"></path>
        <path d="M0 109.49C18.66 109.49 55.35 124.59 55.35 140C55.35 155.51 18.54 171.32 0 171.32C-9.13 171.32 0 155.66 0 140C0 124.75 -9.01 109.49 0 109.49" stroke="rgba(235, 235, 235, 0.58)" stroke-width="2"></path>
        <path d="M661.57 140C644.62 71.93 628.27 49.61 641.89 0C647.49 -20.39 670.94 0 700 0C727.02 0 744.96 -19.45 754.04 0C777.63 50.55 780.25 75.58 765.33 140C753.23 192.25 727.51 233.33 700 233.33C675.63 233.33 673.67 188.6 661.57 140" stroke="rgba(235, 235, 235, 0.58)" stroke-width="2"></path>
        <path d="M1222.86 140C1222.86 113.36 1232.74 99.91 1260 89.44C1321.31 65.91 1337.48 97.27 1400 72C1448.12 52.55 1435.85 23.37 1481.29 0C1505.85 -12.63 1531.33 -20.68 1540 0C1560.68 49.32 1540 70 1540 140C1540 150.65 1549.17 158.61 1540 161.3C1479.17 179.13 1469.61 168.92 1400 181.03C1329.61 193.27 1316.98 223.2 1260 210C1228.41 202.68 1222.86 173.64 1222.86 140" stroke="rgba(235, 235, 235, 0.58)" stroke-width="2"></path>
        <path d="M135.41 280C135.41 275.54 137.9 270 140 270C142.03 270 143.68 275.4 143.68 280C143.68 282.26 141.94 283.73 140 283.73C137.81 283.73 135.41 282.4 135.41 280" stroke="rgba(235, 235, 235, 0.58)" stroke-width="2"></path>
        <path d="M1437.69 420C1462.56 378.73 1503.69 374.14 1540 374.14C1554.85 374.14 1540 397.07 1540 420C1540 490 1571.11 521.11 1540 560C1515.11 591.11 1450.71 591.07 1428 560C1399.55 521.07 1406.56 471.66 1437.69 420" stroke="rgba(235, 235, 235, 0.58)" stroke-width="2"></path>
        <path d="M974.17 560C974.17 558.76 976.61 555.56 980 555.56C988.86 555.56 998.67 558.87 998.67 560C998.67 561.09 989.34 560 980 560C977.09 560 974.17 560.98 974.17 560" stroke="rgba(235, 235, 235, 0.58)" stroke-width="2"></path>
    </g>
    <defs>
        <mask id="SvgjsMask1004">
            <rect width="1440" height="560" fill="#ffffff"></rect>
        </mask>
    </defs>
</svg>